<svg xmlns="http://www.w3.org/2000/svg" viewBox="0 0 511.997 511.997"><g fill="#d3d6db"><path d="M477.721 400.813h-34.112l-51.168 12.792-63.107-63.107c-3.411-3.411-6.822-7.675-9.381-12.792-2.558-5.97-4.264-13.645-4.264-20.467v-71.635c-27.289 18.761-60.548 28.142-93.807 27.289-26.437 0-52.873-5.97-76.751-17.056v46.051c0 23.025 5.97 46.051 17.056 65.665l25.584 46.051c5.97 11.086 13.645 21.32 22.173 29.848l44.345 44.345c16.203 16.203 41.787 19.614 61.401 8.528l25.584-14.497.853-.853c13.645 9.381 31.553 11.086 47.756 5.117l53.726-21.32v-4.264l4.264 11.939c2.558 7.675 10.234 13.645 18.761 13.645 11.086 0 19.614-8.528 19.614-19.614v-57.137c.001-5.117-3.411-8.528-8.527-8.528z"/><path d="M145.984 318.092v-1.706c0-2.558-.853-4.264-.853-6.822v-53.726h-.853l-50.315 9.381-46.051 9.381c-17.909 3.411-28.995 20.467-26.437 37.523 4.264 17.909 20.467 28.995 38.376 26.437l88.69-5.117c-.851-5.118-1.704-10.234-2.557-15.351zM430.817 202.965l-29.848 5.117-57.99 10.234c-1.706 1.706-3.411 4.264-5.117 5.97-.853.853-1.706 1.706-1.706 2.558l-5.117 5.117c-.853.853-1.706.853-1.706 1.706-4.264 4.264-8.528 7.675-13.645 11.086v51.168l85.279-20.467 41.787-10.234c17.909-3.411 28.995-20.467 26.437-37.523-3.409-16.204-20.465-28.143-38.374-24.732zM400.969 110.863c0-9.381-7.675-17.056-17.056-17.056h-27.289c3.411 7.675 5.97 15.35 7.675 23.878v2.558c.853 3.411.853 6.822 1.706 10.234.853 5.117.853 9.381.853 14.497 0 4.264 0 8.528-.853 12.792 0 1.706 0 2.558-.853 4.264 0 2.558-.853 5.97-1.706 8.528 0 1.706-.853 3.411-.853 4.264-.853 2.558-1.706 5.117-2.558 8.528-.853 3.411-1.706 5.117-2.558 7.675-.853 1.706-.853 3.411-1.706 5.117-.853 2.558-1.706 4.264-3.411 6.822-.853.853-.853 1.706-1.706 2.558-2.558 4.264-5.117 9.381-8.528 12.792l57.99-10.234v-97.218h.853zM315.69 317.239c0 2.558 0 5.117.853 6.822h67.371c9.381 0 17.056-7.675 17.056-17.056v-30.701l-85.279 20.467v20.468z"/><path d="M366.005 130.477c0-3.411-.853-6.822-1.706-10.234v-2.558c-1.706-8.528-4.264-16.203-7.675-23.878-22.173-48.609-74.193-76.751-134.741-76.751-79.31 0-144.975 47.756-144.975 127.919-.853 46.904 25.584 90.396 68.223 110.01 5.97 2.558 11.086 5.117 17.056 7.675l7.675 2.558c1.706 0 2.558.853 4.264.853 2.558.853 4.264.853 6.822 1.706 3.411.853 6.822 1.706 10.234 1.706 1.706 0 3.411 0 4.264.853 2.558 0 5.97.853 8.528.853h4.264c4.264 0 8.528.853 12.792.853 4.264 0 9.381 0 13.645-.853 1.706 0 3.411 0 5.117-.853 2.558 0 5.117-.853 8.528-.853 2.558 0 4.264-.853 6.822-.853s4.264-.853 6.822-.853c2.558-.853 5.117-.853 6.822-1.706 1.706-.853 3.411-.853 5.117-1.706l7.675-2.558c1.706-.853 2.558-.853 4.264-1.706 2.558-.853 5.117-2.558 7.675-3.411.853-.853 1.706-.853 2.558-1.706 2.558-1.706 5.97-2.558 8.528-4.264.853 0 .853-.853 1.706-.853 2.558-1.706 5.97-3.411 8.528-5.97 5.117-3.411 9.381-6.822 13.645-11.086.853-.853 1.706-.853 1.706-1.706l5.117-5.117c.853-.853 1.706-1.706 1.706-2.558 1.706-1.706 3.411-4.264 5.117-5.97 0 .853-.853.853-.853 1.706 3.411-4.264 6.822-9.381 9.381-14.497.853-.853.853-1.706 1.706-2.558.853-2.558 2.558-4.264 3.411-6.822.853-1.706 1.706-3.411 1.706-5.117l2.558-7.675c.853-2.558 1.706-5.117 2.558-8.528 0-1.706.853-3.411.853-4.264.853-2.558.853-5.97 1.706-8.528 0-1.706 0-2.558.853-4.264 0-4.264.853-8.528.853-12.792-.002-3.41-.002-8.527-.855-13.644zM196.299 238.782a93.537 93.537 0 0 1-93.807-93.807s42.64-34.112 85.279-34.112 102.335 34.112 102.335 34.112a93.537 93.537 0 0 1-93.807 93.807z"/></g><g fill="#5ec2ff"><path d="M102.492 144.975c0 52.02 41.787 93.807 93.807 93.807s93.807-41.787 93.807-93.807c0 0-59.696-34.112-102.335-34.112s-85.279 34.112-85.279 34.112zM204.827 307.006h51.168c9.381 0 17.056 7.675 17.056 17.056v25.584c0 9.381-7.675 17.056-17.056 17.056h-51.168c-9.381 0-17.056-7.675-17.056-17.056v-25.584c0-9.381 7.675-17.056 17.056-17.056z"/></g><path d="M400.969 136.447c37.523 0 68.223-30.701 68.223-68.223V0h34.112v68.223c0 56.284-46.051 102.335-102.335 102.335v-34.111z" fill="#d3d6db"/><path d="M298.634 144.975c0-56.284-46.051-102.335-102.335-102.335S93.964 88.69 93.964 144.975 140.015 247.31 196.299 247.31s102.335-46.051 102.335-102.335zM196.299 59.696c40.934 0 76.751 29.848 83.574 70.782-20.467-11.086-60.548-28.142-92.102-28.142-28.995 0-57.99 14.497-75.046 24.731 8.528-39.229 43.493-67.371 83.574-67.371zm0 170.558c-45.198 0-82.721-35.817-85.279-81.015 10.234-7.675 43.492-29.848 76.751-29.848s79.31 23.025 93.807 30.701c-2.558 45.198-40.081 80.162-85.279 80.162zM255.994 298.478h-51.168c-14.497 0-25.584 11.086-25.584 25.584v25.584c0 14.497 11.086 25.584 25.584 25.584h51.168c14.497 0 25.584-11.086 25.584-25.584v-25.584c0-14.498-11.086-25.584-25.584-25.584zm8.528 51.167c0 5.117-3.411 8.528-8.528 8.528h-51.168c-5.117 0-8.528-3.411-8.528-8.528v-25.584c0-5.117 3.411-8.528 8.528-8.528h51.168c5.117 0 8.528 3.411 8.528 8.528v25.584z"/><path d="M494.777 68.223c0 48.609-36.67 88.69-85.279 92.954v-17.056c39.228-4.264 68.223-37.523 68.223-75.899V0h-17.056v68.223c0 29.848-22.173 54.579-51.168 58.843v-16.203c0-14.497-11.086-25.584-25.584-25.584H361.74C338.715 38.376 287.548 8.528 221.883 8.528c-90.396 0-153.503 56.284-153.503 136.447-.853 41.787 18.761 81.015 52.873 105.746l-74.193 15.35c-19.614 3.411-34.112 20.467-33.259 40.934 0 25.584 17.056 40.081 46.904 40.081l81.868-4.264c2.558 10.234 6.822 20.467 11.939 29.848l25.584 46.051c6.822 11.939 14.497 22.173 23.878 31.553l44.345 44.345c18.761 18.761 48.609 23.025 71.635 9.381l22.173-12.792c15.35 8.528 34.112 9.381 51.168 3.411l46.904-18.761c5.117 14.497 21.32 23.025 35.817 17.056 11.086-4.264 18.761-14.497 18.761-26.437V409.34c0-9.381-7.675-17.056-17.056-17.056H441.903L395 403.371l-59.696-59.696c-3.411-3.411-5.117-6.822-7.675-10.234 0-.853-.853-.853-.853-1.706h57.137c14.497 0 25.584-11.086 25.584-25.584v-23.878l34.965-8.528c22.173-4.264 36.67-25.584 33.259-47.756-3.411-22.173-25.584-36.67-47.756-33.259l-20.467 5.117v-19.614c57.99-4.264 102.335-52.873 102.335-110.01V0h-17.056v68.223zM85.436 144.975c0-69.929 56.284-119.391 136.447-119.391S358.33 75.046 358.33 144.975s-56.284 119.391-136.447 119.391S85.436 214.904 85.436 144.975zm238.782 140.711v-35.817c9.381-6.822 17.056-14.497 23.878-23.878l12.792-2.558-26.437 58.843-10.233 3.41zM59.852 330.031c-26.437 0-29.848-13.645-29.848-23.025 0-11.939 8.528-21.32 19.614-23.878l40.081-8.528 25.584 52.02-55.431 3.411zm74.193-4.264l-27.289-54.579 29.848-5.97v36.67c0 7.675.853 16.203 1.706 23.878h-4.265zm343.676 140.711c0 5.97-5.117 11.086-11.086 11.086-5.117 0-9.381-3.411-11.086-7.675l-3.411-11.086v-49.462h25.584v57.137zm-74.193-29.848l11.939-11.939-5.97-6.822 25.584-6.822v46.904l-48.609 19.614c-16.203 5.97-34.112 2.558-46.051-9.381l-61.401-61.401-11.939 11.939 60.548 60.548-16.203 9.381c-17.056 9.381-37.523 6.822-51.168-6.822l-44.345-44.345c-8.528-8.528-15.35-17.909-21.32-28.142L169.01 363.29c-10.234-18.761-15.35-40.081-16.203-62.254V268.63c22.173 8.528 45.198 12.792 68.223 12.792 29.848.853 58.843-6.822 85.279-20.467v56.284c0 15.35 5.97 28.995 16.203 40.081l81.016 79.31zm-11.087-129.624c0 5.117-3.411 8.528-8.528 8.528h-59.696v-11.939l68.223-16.203v19.614zm40.082-96.366c12.792-2.558 25.584 6.822 27.289 19.614s-6.822 25.584-19.614 27.289l-84.427 20.467 25.584-57.99 51.168-9.38zm-71.635-4.264c9.381-18.761 14.497-40.081 14.497-61.401 0-14.497-1.706-28.995-6.822-42.64h15.35c5.117 0 8.528 3.411 8.528 8.528v90.396l-31.553 5.117z"/><path d="M315.699 127.919h17.056v42.64h-17.056zM17.221 0h17.056v17.056H17.221zM.156 17.056h17.056v17.056H.156zM34.277 17.056h17.056v17.056H34.277zM17.221 34.112h17.056v17.056H17.221zM.156 162.031h17.056v17.056H.156zM477.729 298.478h17.056v17.056h-17.056zM460.673 315.533h17.056v17.056h-17.056zM494.785 315.533h17.056v17.056h-17.056zM477.729 332.589h17.056v17.056h-17.056zM102.5 400.813h17.056v17.056H102.5zM85.444 417.869H102.5v17.056H85.444zM119.556 417.869h17.056v17.056h-17.056zM102.5 434.925h17.056v17.056H102.5zM34.277 469.036h17.056v17.056H34.277zM162.196 494.62h17.056v17.056h-17.056zM.156 358.173h17.056v17.056H.156z"/></svg>